<svg width="12" height="16" viewBox="0 0 12 16" fill="none" xmlns="http://www.w3.org/2000/svg">
  <path d="M3.15857 11.124C2.89833 10.8694 3.03399 10.9411 2.40629 10.7768C2.12149 10.7021 1.87112 10.5585 1.64472 10.3866L0.285996 13.6455C0.154526 13.961 0.400097 14.3038 0.748088 14.2909L2.32603 14.232L3.41133 15.3535C3.65091 15.6007 4.07137 15.5237 4.20284 15.2081L5.76162 11.4694C5.43699 11.6463 5.07671 11.75 4.70417 11.75C4.12019 11.75 3.57155 11.5277 3.15857 11.124ZM11.714 13.6455L10.3553 10.3866C10.1289 10.5588 9.87852 10.7021 9.59371 10.7768C8.96272 10.942 9.10108 10.87 8.84143 11.124C8.42845 11.5277 7.87951 11.75 7.29553 11.75C6.92299 11.75 6.56272 11.646 6.23808 11.4694L7.79686 15.2081C7.92833 15.5237 8.34909 15.6007 8.58837 15.3535L9.67397 14.232L11.2519 14.2909C11.5999 14.3038 11.8455 13.9607 11.714 13.6455ZM8.12628 10.461C8.58388 10.0054 8.63629 10.0447 9.28795 9.87095C9.70392 9.75991 10.0292 9.43619 10.1406 9.02194C10.3646 8.18993 10.3065 8.29041 10.9177 7.68164C11.2223 7.37842 11.3412 6.93634 11.2298 6.52209C11.006 5.69066 11.0057 5.80667 11.2298 4.97437C11.3412 4.56012 11.2223 4.11804 10.9177 3.81482C10.3065 3.20604 10.3646 3.30624 10.1406 2.47451C10.0292 2.06026 9.70392 1.73654 9.28795 1.62551C8.45301 1.40256 8.55363 1.46086 7.9418 0.851792C7.63724 0.548575 7.19311 0.429925 6.77714 0.540958C5.9425 0.76361 6.059 0.763903 5.22286 0.540958C4.80689 0.429925 4.36276 0.548282 4.0582 0.851792C3.44697 1.46057 3.54759 1.40256 2.71235 1.62551C2.29638 1.73654 1.97115 2.06026 1.85974 2.47451C1.63603 3.30624 1.69383 3.20604 1.0826 3.81482C0.778036 4.11804 0.658844 4.56012 0.770549 4.97437C0.994257 5.80521 0.994557 5.6892 0.770549 6.5218C0.659144 6.93605 0.778036 7.37813 1.0826 7.68164C1.69383 8.29041 1.63574 8.18993 1.85974 9.02194C1.97115 9.43619 2.29638 9.75991 2.71235 9.87095C3.38258 10.0497 3.43259 10.0215 3.87372 10.461C4.26993 10.8556 4.88715 10.9262 5.36331 10.6315C5.55373 10.5132 5.77461 10.4504 6.00015 10.4504C6.22569 10.4504 6.44657 10.5132 6.63699 10.6315C7.11285 10.9262 7.73007 10.8556 8.12628 10.461ZM3.17474 5.65521C3.17474 4.10163 4.43973 2.84218 6 2.84218C7.56027 2.84218 8.82526 4.10163 8.82526 5.65521C8.82526 7.20879 7.56027 8.46824 6 8.46824C4.43973 8.46824 3.17474 7.20879 3.17474 5.65521Z" fill="#6C757D"/>
</svg>
