<svg width="30" height="40" viewBox="0 0 26 34" fill="none" xmlns="http://www.w3.org/2000/svg">
<path fill-rule="evenodd" clip-rule="evenodd" d="M4 18H22V16H4V18ZM4 13H22V11H4V13ZM4 6V8H22V6H4Z" fill="#222428"/>
<path d="M1.95469 27.791V32H0.777929V26.7168H1.88633L1.95469 27.791ZM1.76426 29.1631L1.36387 29.1582C1.36387 28.7936 1.40944 28.4567 1.50059 28.1475C1.59173 27.8382 1.72519 27.5697 1.90098 27.3418C2.07676 27.1107 2.29486 26.9333 2.55527 26.8096C2.81894 26.6826 3.12331 26.6191 3.46836 26.6191C3.70924 26.6191 3.92897 26.6549 4.12754 26.7266C4.32936 26.7949 4.50352 26.904 4.65 27.0537C4.79974 27.2035 4.91367 27.3955 4.9918 27.6299C5.07318 27.8643 5.11387 28.1475 5.11387 28.4795V32H3.93711V28.582C3.93711 28.3249 3.89805 28.123 3.81992 27.9766C3.74505 27.8301 3.636 27.7259 3.49277 27.6641C3.3528 27.599 3.18516 27.5664 2.98984 27.5664C2.76849 27.5664 2.57969 27.6087 2.42344 27.6934C2.27044 27.778 2.14512 27.8936 2.04746 28.04C1.9498 28.1865 1.87819 28.3558 1.83262 28.5479C1.78704 28.7399 1.76426 28.945 1.76426 29.1631ZM5.04062 28.8506L4.48887 28.9727C4.48887 28.6536 4.53281 28.3525 4.6207 28.0693C4.71185 27.7829 4.84368 27.5322 5.01621 27.3174C5.19199 27.0993 5.40846 26.9284 5.66562 26.8047C5.92279 26.681 6.21738 26.6191 6.54941 26.6191C6.8196 26.6191 7.06048 26.6566 7.27207 26.7314C7.48691 26.8031 7.66921 26.917 7.81894 27.0732C7.96868 27.2295 8.08262 27.4329 8.16074 27.6836C8.23887 27.931 8.27793 28.2305 8.27793 28.582V32H7.09629V28.5771C7.09629 28.3102 7.05723 28.1035 6.9791 27.957C6.90423 27.8105 6.79681 27.7096 6.65684 27.6543C6.51686 27.5957 6.34922 27.5664 6.15391 27.5664C5.97161 27.5664 5.81048 27.6006 5.67051 27.6689C5.53379 27.734 5.41823 27.8268 5.32383 27.9473C5.22943 28.0645 5.15781 28.1995 5.10898 28.3525C5.06341 28.5055 5.04062 28.6715 5.04062 28.8506ZM11.968 32.0977C11.5773 32.0977 11.2242 32.0342 10.9084 31.9072C10.5959 31.777 10.329 31.5964 10.1076 31.3652C9.88952 31.1341 9.72187 30.8623 9.60469 30.5498C9.4875 30.2373 9.42891 29.9004 9.42891 29.5391V29.3438C9.42891 28.9303 9.48913 28.556 9.60957 28.2207C9.73001 27.8854 9.89766 27.599 10.1125 27.3613C10.3273 27.1204 10.5812 26.9365 10.8742 26.8096C11.1672 26.6826 11.4846 26.6191 11.8264 26.6191C12.204 26.6191 12.5344 26.6826 12.8176 26.8096C13.1008 26.9365 13.3352 27.1156 13.5207 27.3467C13.7095 27.5745 13.8495 27.8464 13.9406 28.1621C14.035 28.4779 14.0822 28.8262 14.0822 29.207V29.71H10.0002V28.8652H12.9201V28.7725C12.9136 28.5609 12.8713 28.3623 12.7932 28.1768C12.7183 27.9912 12.6027 27.8415 12.4465 27.7275C12.2902 27.6136 12.0819 27.5566 11.8215 27.5566C11.6262 27.5566 11.452 27.599 11.299 27.6836C11.1493 27.765 11.024 27.8838 10.923 28.04C10.8221 28.1963 10.744 28.3851 10.6887 28.6064C10.6366 28.8245 10.6105 29.0703 10.6105 29.3438V29.5391C10.6105 29.7702 10.6415 29.985 10.7033 30.1836C10.7684 30.3789 10.8628 30.5498 10.9865 30.6963C11.1102 30.8428 11.26 30.9583 11.4357 31.043C11.6115 31.1243 11.8117 31.165 12.0363 31.165C12.3195 31.165 12.5718 31.1081 12.7932 30.9941C13.0145 30.8802 13.2066 30.7191 13.3693 30.5107L13.9895 31.1113C13.8755 31.2773 13.7274 31.4368 13.5451 31.5898C13.3628 31.7396 13.1398 31.8617 12.8762 31.9561C12.6158 32.0505 12.313 32.0977 11.968 32.0977ZM16.3172 27.8447V32H15.1404V26.7168H16.2488L16.3172 27.8447ZM16.1072 29.1631L15.7264 29.1582C15.7296 28.7839 15.7817 28.4404 15.8826 28.1279C15.9868 27.8154 16.13 27.5469 16.3123 27.3223C16.4979 27.0977 16.7192 26.9251 16.9764 26.8047C17.2335 26.681 17.52 26.6191 17.8357 26.6191C18.0896 26.6191 18.3191 26.6549 18.5242 26.7266C18.7326 26.7949 18.91 26.9072 19.0564 27.0635C19.2062 27.2197 19.3201 27.4232 19.3982 27.6738C19.4764 27.9212 19.5154 28.2256 19.5154 28.5869V32H18.3338V28.582C18.3338 28.3281 18.2964 28.1279 18.2215 27.9814C18.1499 27.8317 18.0441 27.7259 17.9041 27.6641C17.7674 27.599 17.5965 27.5664 17.3914 27.5664C17.1896 27.5664 17.0089 27.6087 16.8494 27.6934C16.6899 27.778 16.5548 27.8936 16.4441 28.04C16.3367 28.1865 16.2537 28.3558 16.1951 28.5479C16.1365 28.7399 16.1072 28.945 16.1072 29.1631ZM24.0453 30.7549V26.7168H25.227V32H24.1137L24.0453 30.7549ZM24.2113 29.6562L24.6068 29.6465C24.6068 30.0013 24.5678 30.3285 24.4896 30.6279C24.4115 30.9242 24.2911 31.1829 24.1283 31.4043C23.9656 31.6224 23.7572 31.7933 23.5033 31.917C23.2494 32.0374 22.9451 32.0977 22.5902 32.0977C22.3331 32.0977 22.0971 32.0602 21.8822 31.9854C21.6674 31.9105 21.4818 31.7949 21.3256 31.6387C21.1726 31.4824 21.0538 31.279 20.9691 31.0283C20.8845 30.7777 20.8422 30.4782 20.8422 30.1299V26.7168H22.0189V30.1396C22.0189 30.3317 22.0417 30.4928 22.0873 30.623C22.1329 30.75 22.1947 30.8525 22.2729 30.9307C22.351 31.0088 22.4421 31.0641 22.5463 31.0967C22.6505 31.1292 22.7611 31.1455 22.8783 31.1455C23.2136 31.1455 23.4773 31.0804 23.6693 30.9502C23.8646 30.8167 24.003 30.6377 24.0844 30.4131C24.169 30.1885 24.2113 29.9362 24.2113 29.6562Z" fill="black"/>
</svg>
