<svg width="14" height="18" viewBox="0 0 14 18" fill="none" xmlns="http://www.w3.org/2000/svg">
  <path d="M3.80339 12.5144C3.51062 12.228 3.66324 12.3088 2.95707 12.1239C2.63667 12.0398 2.35501 11.8783 2.10031 11.6849L0.571746 15.3512C0.423842 15.7061 0.700109 16.0917 1.0916 16.0772L2.86678 16.011L4.08774 17.2726C4.35727 17.5508 4.8303 17.4641 4.9782 17.1092L6.73182 12.903C6.36661 13.1021 5.9613 13.2188 5.54219 13.2188C4.88521 13.2188 4.26799 12.9686 3.80339 12.5144ZM13.4283 15.3512L11.8997 11.6849C11.645 11.8787 11.3633 12.0398 11.0429 12.1239C10.3331 12.3098 10.4887 12.2287 10.1966 12.5144C9.73201 12.9686 9.11445 13.2188 8.45747 13.2188C8.03836 13.2188 7.63305 13.1018 7.26784 12.903L9.02146 17.1092C9.16937 17.4641 9.64273 17.5508 9.91192 17.2726L11.1332 16.011L12.9084 16.0772C13.2999 16.0917 13.5762 15.7058 13.4283 15.3512ZM9.39207 11.7686C9.90687 11.2561 9.96582 11.3003 10.6989 11.1048C11.1669 10.9799 11.5328 10.6157 11.6581 10.1497C11.9101 9.21367 11.8448 9.32671 12.5324 8.64184C12.875 8.30072 13.0088 7.80338 12.8835 7.33735C12.6318 6.40199 12.6315 6.53251 12.8835 5.59616C13.0088 5.13013 12.875 4.63279 12.5324 4.29167C11.8448 3.6068 11.9101 3.71951 11.6581 2.78383C11.5328 2.3178 11.1669 1.95361 10.6989 1.8287C9.75963 1.57788 9.87284 1.64347 9.18453 0.958266C8.84189 0.617147 8.34225 0.483666 7.87428 0.608578C6.93531 0.859061 7.06637 0.859391 6.12572 0.608578C5.65775 0.483666 5.15811 0.616817 4.81547 0.958266C4.12784 1.64314 4.24104 1.57788 3.3014 1.8287C2.83343 1.95361 2.46754 2.3178 2.34221 2.78383C2.09054 3.71951 2.15556 3.6068 1.46793 4.29167C1.12529 4.63279 0.9912 5.13013 1.11687 5.59616C1.36854 6.53086 1.36888 6.40034 1.11687 7.33702C0.991536 7.80305 1.12529 8.30039 1.46793 8.64184C2.15556 9.32671 2.0902 9.21367 2.34221 10.1497C2.46754 10.6157 2.83343 10.9799 3.3014 11.1048C4.0554 11.3059 4.11167 11.2742 4.60793 11.7686C5.05367 12.2125 5.74804 12.292 6.28373 11.9604C6.49794 11.8274 6.74643 11.7567 7.00017 11.7567C7.2539 11.7567 7.5024 11.8274 7.71661 11.9604C8.25196 12.292 8.94633 12.2125 9.39207 11.7686ZM3.82159 6.36211C3.82159 4.61433 5.2447 3.19745 7 3.19745C8.7553 3.19745 10.1784 4.61433 10.1784 6.36211C10.1784 8.10989 8.7553 9.52677 7 9.52677C5.2447 9.52677 3.82159 8.10989 3.82159 6.36211Z" fill="#343A40"/>
</svg>