<svg width="16" height="16" viewBox="0 0 16 16" fill="none" xmlns="http://www.w3.org/2000/svg">
<path d="M8.00016 1.33203C4.32416 1.33203 1.3335 4.3227 1.3335 7.9987C1.3335 11.6747 4.32416 14.6654 8.00016 14.6654C11.6762 14.6654 14.6668 11.6747 14.6668 7.9987C14.6668 4.3227 11.6762 1.33203 8.00016 1.33203ZM8.00016 13.332C5.0595 13.332 2.66683 10.9394 2.66683 7.9987C2.66683 5.05803 5.0595 2.66536 8.00016 2.66536C10.9408 2.66536 13.3335 5.05803 13.3335 7.9987C13.3335 10.9394 10.9408 13.332 8.00016 13.332Z" fill="#343A40"/>
<path d="M7.3335 7.33464H8.66683V11.3346H7.3335V7.33464ZM7.3335 4.66797H8.66683V6.0013H7.3335V4.66797Z" fill="#343A40"/>
</svg>
