<svg width="153" height="120" viewBox="0 0 153 120" fill="none" xmlns="http://www.w3.org/2000/svg">
<path d="M134.503 40.5195C133.994 55.7791 124.544 70.4121 110.848 77.1492C110.009 68.9032 112.471 59.7563 117.231 54.1401C121.991 48.5237 128.297 44.4786 134.503 40.5195Z" fill="#EBEBEB"/>
<path d="M107.341 72.5578C106.345 78.6361 103.297 84.3594 98.8088 88.5762C96.1117 83.5788 96.7103 75.9171 97.9386 70.3727C99.1668 64.8282 101.726 59.6792 104.367 54.6523C107.274 60.082 108.337 66.4794 107.341 72.5574L107.341 72.5578Z" fill="#EBEBEB"/>
<path d="M90.1367 101.214C90.0957 101.214 90.055 101.197 90.0251 101.165C89.9675 101.104 89.9706 101.007 90.0324 100.949C104.037 87.8688 115.524 72.5651 124.175 55.463C124.213 55.3874 124.305 55.3574 124.38 55.3953C124.456 55.4336 124.486 55.5257 124.448 55.601C115.781 72.7356 104.272 88.0681 90.2411 101.173C90.2117 101.2 90.1741 101.214 90.1367 101.214Z" fill="#E0E0E0"/>
<path d="M97.2771 93.827C97.26 93.827 97.2426 93.824 97.2254 93.8182C97.1459 93.7897 97.1046 93.7021 97.133 93.6222C100.532 84.1297 102.783 74.0977 104.013 62.9527C104.023 62.8686 104.1 62.8076 104.182 62.8174C104.266 62.8266 104.327 62.9022 104.318 62.9864C103.085 74.155 100.829 84.2102 97.421 93.7257C97.3986 93.7882 97.3396 93.827 97.2768 93.827H97.2771Z" fill="#E0E0E0"/>
<path d="M111.066 86.8544C106.095 88.1343 101.57 91.0933 98.4036 95.1356C102.753 97.0045 109.069 95.9367 113.58 94.5035C118.092 93.0702 122.175 90.5606 126.152 87.9916C121.428 85.9807 116.038 85.5742 111.066 86.8544Z" fill="#EBEBEB"/>
<path d="M122.792 72.8805C118.198 74.0634 114.018 76.7971 111.092 80.5321C115.111 82.2586 120.946 81.2723 125.115 79.948C129.283 78.6237 133.056 76.3048 136.731 73.9314C132.366 72.0733 127.386 71.698 122.792 72.8805H122.792Z" fill="#EBEBEB"/>
<path d="M94.8266 96.6888C94.769 96.6888 94.7137 96.6561 94.6876 96.6C94.6525 96.5232 94.6855 96.4323 94.7623 96.3968C102.244 92.933 109.79 90.537 119.23 88.628C119.311 88.6115 119.394 88.6647 119.411 88.748C119.427 88.831 119.374 88.9115 119.291 88.9283C109.875 90.8324 102.35 93.2214 94.8908 96.675C94.87 96.6845 94.848 96.6888 94.8266 96.6888Z" fill="#E0E0E0"/>
<path d="M107.809 81.9141C107.747 81.9141 107.689 81.8758 107.666 81.814C107.637 81.7344 107.677 81.6465 107.757 81.6172C112.966 79.7024 118.309 77.9523 123.635 76.4165C123.717 76.3923 123.801 76.44 123.825 76.5211C123.848 76.6026 123.801 76.6874 123.72 76.7106C118.4 78.2446 113.065 79.9923 107.862 81.9049C107.845 81.9113 107.827 81.9141 107.809 81.9141Z" fill="#E0E0E0"/>
<path d="M24.6731 36.6836C22.7282 51.8272 29.7086 67.7875 42.1466 76.6356C44.2972 68.6311 43.3339 59.2075 39.5364 52.9001C35.739 46.5925 30.1636 41.5877 24.6731 36.6836Z" fill="#EBEBEB"/>
<path d="M46.3452 72.6646C46.3532 78.8241 48.4444 84.9624 52.1975 89.8451C55.6611 85.3454 56.2991 77.6868 55.976 72.0171C55.6528 66.3471 53.9527 60.8544 52.1519 55.4688C48.4117 60.3615 46.337 66.5054 46.3452 72.6646Z" fill="#EBEBEB"/>
<path d="M58.7546 103.715C58.709 103.715 58.6637 103.695 58.6334 103.656C46.8861 88.4685 37.9854 71.4873 32.1788 53.1839C32.1534 53.1034 32.1978 53.0174 32.2782 52.9916C32.3596 52.9659 32.445 53.0106 32.4704 53.0911C38.266 71.3599 47.1501 88.3093 58.8755 103.468C58.9272 103.535 58.9149 103.631 58.8482 103.683C58.8204 103.704 58.7873 103.715 58.7546 103.715V103.715Z" fill="#E0E0E0"/>
<path d="M52.8911 95.2773C52.8189 95.2773 52.7544 95.2259 52.7409 95.1521C50.9034 85.2139 50.2892 74.9272 50.8633 63.7045C50.8676 63.62 50.9453 63.5505 51.0239 63.5594C51.1084 63.5636 51.1733 63.6356 51.169 63.7198C50.5961 74.9186 51.2087 85.1817 53.042 95.0964C53.0573 95.1794 53.0025 95.2593 52.9193 95.2746C52.9098 95.2764 52.9006 95.2773 52.8914 95.2773H52.8911Z" fill="#E0E0E0"/>
<path d="M40.3746 86.1819C45.0769 88.2433 49.068 91.8898 51.5454 96.3883C46.9527 97.5347 40.8899 95.4672 36.6668 93.3283C32.4437 91.1894 28.8151 88.0569 25.3022 84.883C30.2876 83.6564 35.6729 84.1201 40.3749 86.1819H40.3746Z" fill="#EBEBEB"/>
<path d="M31.0424 70.5045C35.387 72.4092 39.0746 75.7787 41.3638 79.9349C37.1202 80.9941 31.5185 79.0836 27.6164 77.1075C23.7143 75.1312 20.3618 72.2371 17.1157 69.3045C21.7219 68.1712 26.6978 68.5998 31.0424 70.5045Z" fill="#EBEBEB"/>
<path d="M54.8511 98.4951C54.8218 98.4951 54.7918 98.4868 54.7655 98.4688C47.9564 93.8626 40.9116 90.2965 31.9241 86.9062C31.8451 86.8762 31.8051 86.7881 31.8347 86.7088C31.8647 86.6298 31.9522 86.5888 32.0318 86.6197C41.0426 90.0189 48.1066 93.5947 54.9368 98.215C55.0069 98.2622 55.0253 98.3577 54.9778 98.4275C54.9481 98.4712 54.9001 98.4948 54.8508 98.4948L54.8511 98.4951Z" fill="#E0E0E0"/>
<path d="M44.4061 81.8266C44.3807 81.8266 44.355 81.8201 44.3311 81.807C39.5049 79.0855 34.5192 76.5043 29.5121 74.1349C29.4356 74.0988 29.4032 74.0076 29.4393 73.931C29.4754 73.8548 29.566 73.8227 29.6431 73.8582C34.6566 76.2309 39.649 78.8155 44.4817 81.5406C44.5551 81.5823 44.5814 81.6753 44.5398 81.7491C44.5116 81.799 44.4599 81.8272 44.4064 81.8272L44.4061 81.8266Z" fill="#E0E0E0"/>
<path d="M82.5459 105.629C82.5459 105.629 103.868 90.3359 105.841 93.2373C107.814 96.139 85.9997 108.363 82.5459 105.629Z" fill="#407BFF"/>
<path d="M113.295 105.163C113.295 105.163 98.8963 87.6719 97.8679 82.6564C96.8394 77.6406 96.5824 78.2838 99.2819 73.2679C101.981 68.2521 104.681 63.5828 103.653 57.558C102.624 51.5332 102.496 43.4081 102.367 42.6477C102.239 41.8873 99.7963 38.415 99.2819 35.3283C98.7675 32.2417 99.6675 30.0554 97.7394 29.6697C95.8109 29.284 91.5686 31.5989 91.9544 36.2287C91.9544 36.2287 88.0976 15.394 85.7836 13.2076C83.4697 11.0213 81.9268 11.3571 80.8983 12.5397C80.8983 12.5397 79.1753 6.46161 75.6354 8.69049C72.9353 10.3907 73.442 13.3362 73.442 13.3362C73.442 13.3362 72.2453 10.5067 69.5656 11.5356C66.8857 12.5645 67.143 18.0946 67.2715 17.7089C67.4001 17.3231 65.0466 16.4228 63.9735 17.4517C62.9003 18.4806 60.3131 51.8583 61.6069 56.197C62.9006 60.5357 66.561 80.0844 69.9374 84.0713C73.3138 88.0582 76.9133 90.8874 81.413 100.533C85.9125 110.179 89.5765 118.144 89.5765 118.144C89.5765 118.144 102.625 115.709 113.295 105.163L113.295 105.163Z" fill="#FAAC6D"/>
<path opacity="0.4" d="M84.292 75.4696C84.8489 73.5906 88.6461 54.1454 89.9466 52.6797C89.9466 52.6797 87.274 53.812 85.7531 58.5334C84.4851 62.6314 84.2954 68.8656 84.292 75.4696Z" fill="#A24E3F"/>
<path opacity="0.4" d="M95.0272 42.408L93.9167 44.6201C93.0235 43.1005 91.6584 39.2387 91.9399 35.2852C91.9399 35.2852 90.9464 40.0974 92.3485 43.3616C93.7509 46.6255 93.417 46.9597 93.417 46.9597C93.417 46.9597 93.0602 51.569 94.5073 53.5732L94.4742 52.5737C93.6716 49.2272 93.8662 45.6477 95.0272 42.408Z" fill="#A24E3F"/>
<g opacity="0.4">
<path d="M82.3714 37.0655C82.3714 37.0655 81.0914 14.7954 80.8589 12.4141C80.8589 12.4141 84.3794 27.2022 82.3714 37.0655Z" fill="#A24E3F"/>
</g>
<g opacity="0.4">
<path d="M74.8619 37.8389C74.8619 37.8389 73.5819 15.5688 73.3494 13.1875C73.3494 13.1875 76.8699 27.9757 74.8619 37.8389Z" fill="#A24E3F"/>
</g>
<g opacity="0.4">
<path d="M68.587 42.296C67.5445 42.2917 66.4747 20.0225 67.0745 17.6445C67.0745 17.6445 69.3034 31.8587 68.587 42.296Z" fill="#A24E3F"/>
</g>
<path opacity="0.3" d="M105.841 95.6222C102.153 90.6654 98.3765 85.1372 97.8679 82.6576C96.8395 77.6418 96.5824 78.2849 99.2819 73.2691C100.592 70.8361 101.9 68.4838 102.784 66.0195C102.784 66.0195 96.2287 80.0375 89.2546 83.6464L95.5203 82.237C95.5203 82.237 100.182 93.2837 105.841 95.6225V95.6222Z" fill="black"/>
<path d="M88.9333 118.866L82.5459 105.629C84.4911 107.759 107.622 94.7127 105.841 93.2375C105.57 93.0131 114.104 105.085 114.104 105.085C114.104 105.085 105.659 117.25 88.9333 118.866V118.866Z" fill="#407BFF"/>
<path opacity="0.5" d="M88.9333 118.866L82.5459 105.629C84.4911 107.759 107.622 94.7127 105.841 93.2375C105.57 93.0131 114.104 105.085 114.104 105.085C114.104 105.085 105.659 117.25 88.9333 118.866V118.866Z" fill="white"/>
<path d="M54.4974 36.5463C54.4974 36.5463 52.938 31.1466 50.1794 32.7063C47.4206 34.2663 48.5001 36.7863 48.5001 40.506C48.5001 44.2257 46.8208 54.6657 49.0999 61.8654C51.379 69.0651 54.9772 73.2651 54.4974 80.4648C54.0176 87.6645 42.3826 109.024 42.3826 109.024C42.3826 109.024 58.2156 118.624 67.9314 118.504C67.9314 118.504 79.3266 88.3844 81.3657 85.0244C83.4049 81.6644 87.0032 75.4639 87.1231 68.2251C87.2431 60.9862 85.8037 25.8663 84.7241 22.8666C83.6445 19.8669 80.7657 17.7069 78.8468 21.0666C78.8468 21.0666 79.4465 9.6669 75.2482 9.5469C75.2482 9.5469 71.8895 9.6669 71.5297 12.9069C71.5297 12.9069 71.5297 7.74721 68.291 7.62721C65.0523 7.50721 64.3326 12.3069 63.9727 14.4669C63.9727 14.4669 62.928 12.6684 61.0939 12.7869C59.6927 12.8775 57.1354 13.8669 56.5357 19.7466C55.9359 25.6263 54.4965 36.546 54.4965 36.546L54.4974 36.5463Z" fill="#FFC3BD"/>
<path opacity="0.3" d="M54.4974 36.5469C54.4974 36.5469 52.8055 43.9893 52.6329 48.3344C52.4625 52.6263 54.1146 61.1236 54.1146 61.1236C54.1146 61.1236 51.3808 53.6842 51.546 48.1413C51.7113 42.598 54.4974 36.5472 54.4974 36.5472V36.5469Z" fill="#E97F3F"/>
<path opacity="0.3" d="M71.5303 12.9062L70.1254 41.7222C70.1254 41.7222 69.194 36.7302 69.7778 27.1299C70.3617 17.5296 71.5303 12.9062 71.5303 12.9062Z" fill="#E97F3F"/>
<path opacity="0.3" d="M78.8472 42.6462C80.3251 36.5626 78.8472 21.0664 78.8472 21.0664V42.6462Z" fill="#E97F3F"/>
<g opacity="0.3">
<path d="M61.5201 51.5563C61.5201 51.5563 60.61 47.7035 61.2343 45.8594C61.0788 46.0847 59.6204 49.1606 61.5201 51.5563Z" fill="#E97F3F"/>
</g>
<g opacity="0.3">
<path d="M70.3149 46.0547C70.3149 46.0547 68.568 48.3589 70.5576 51.3019C70.5576 51.3019 70.1521 47.9383 70.3149 46.0547Z" fill="#E97F3F"/>
</g>
<path opacity="0.3" d="M61.6067 40.5492L63.9733 14.4688C63.9727 14.4718 60.2735 30.0663 61.6067 40.5492Z" fill="#E97F3F"/>
<path d="M40.2945 108.185L50.2055 90.3672C57.4293 96.8092 65.4431 101.383 75.0705 102.142L69.1852 119.805C58.7264 118.505 45.3453 112.548 40.2942 108.185H40.2945Z" fill="#407BFF"/>
</svg>
