<svg width="173" height="125" viewBox="0 0 173 125" fill="none" xmlns="http://www.w3.org/2000/svg">
<path d="M114.44 111.57H105.877V111.657H114.44V111.57Z" fill="#F4F5F8"/>
<path d="M77.9513 113.684H61.8384V113.77H77.9513V113.684Z" fill="#F4F5F8"/>
<path d="M18.5427 109.207H59.6714L59.6714 17.6523H18.5427L18.5427 109.207Z" fill="#F4F5F8"/>
<path d="M18.546 109.207H57.7241L57.7241 17.6523H18.546L18.546 109.207Z" fill="#F4F5F8"/>
<path d="M55.6602 107.134L55.6602 19.7344L20.61 19.7344L20.61 107.134H55.6602Z" fill="#F4F5F8"/>
<path d="M31.9345 60.9428H24.7896C24.5463 60.9419 24.3132 60.8442 24.1411 60.671C23.9691 60.4978 23.872 60.2632 23.8711 60.0183C23.872 59.7733 23.9691 59.5387 24.1411 59.3655C24.3132 59.1924 24.5463 59.0947 24.7896 59.0938H31.9345C32.1778 59.0947 32.4109 59.1924 32.5829 59.3655C32.755 59.5387 32.852 59.7733 32.8529 60.0183C32.852 60.2632 32.755 60.4978 32.5829 60.671C32.4109 60.8442 32.1778 60.9419 31.9345 60.9428Z" fill="white"/>
<path d="M21.1465 107.134L21.1465 19.7344H20.6098L20.6098 107.134H21.1465Z" fill="#F4F5F8"/>
<path d="M78.9422 107.473H85.0654V80.7414H78.9422V107.473Z" fill="#F4F5F8"/>
<path d="M53.6924 109.172H83.8887V107.479H53.6924V109.172Z" fill="#F4F5F8"/>
<path d="M78.9422 80.7461H52.5161V107.477H78.9422V80.7461Z" fill="#F4F5F8"/>
<path d="M76.5305 84.0352H54.9204V92.8025H76.5305V84.0352Z" fill="#F4F5F8"/>
<path d="M76.5305 95.418H54.9204V104.185H76.5305V95.418Z" fill="#F4F5F8"/>
<path d="M63.3007 84.7718H68.1545C68.3121 84.7709 68.4629 84.7075 68.5743 84.5954C68.6858 84.4832 68.7487 84.3314 68.7496 84.1728C68.7496 84.0136 68.6871 83.8609 68.5755 83.748C68.464 83.6351 68.3127 83.5712 68.1545 83.5703H63.3007C63.1425 83.5712 62.9912 83.6351 62.8797 83.748C62.7682 83.8609 62.7056 84.0136 62.7056 84.1728C62.7065 84.3314 62.7695 84.4832 62.8809 84.5954C62.9923 84.7075 63.1431 84.7709 63.3007 84.7718Z" fill="#F4F5F8"/>
<path d="M63.3007 96.1564H68.1545C68.3103 96.1556 68.4596 96.0936 68.5708 95.9837C68.6819 95.8738 68.7461 95.7246 68.7496 95.5678C68.7487 95.4092 68.6858 95.2574 68.5743 95.1452C68.4629 95.0331 68.3121 94.9697 68.1545 94.9688H63.3007C63.1431 94.9697 62.9923 95.0331 62.8809 95.1452C62.7695 95.2574 62.7065 95.4092 62.7056 95.5678C62.7091 95.7246 62.7733 95.8738 62.8844 95.9837C62.9956 96.0936 63.1449 96.1556 63.3007 96.1564Z" fill="#F4F5F8"/>
<path d="M67.7417 80.2206C67.6215 80.2197 67.5066 80.1712 67.4216 80.0857C67.3366 80.0002 67.2885 79.8845 67.2876 79.7635V65.875C67.2876 65.7538 67.3354 65.6376 67.4206 65.5518C67.5058 65.4661 67.6212 65.418 67.7417 65.418C67.8618 65.4189 67.9768 65.4673 68.0618 65.5528C68.1467 65.6384 68.1949 65.7541 68.1958 65.875V79.7635C68.1949 79.8845 68.1467 80.0002 68.0618 80.0857C67.9768 80.1712 67.8618 80.2197 67.7417 80.2206Z" fill="#F4F5F8"/>
<path d="M71.99 79.6797H63.4932V80.7566H71.99V79.6797Z" fill="#F4F5F8"/>
<path d="M70.0942 71.9092C70.0346 71.9092 69.9774 71.8856 69.9349 71.8435C69.8924 71.8014 69.8681 71.7441 69.8672 71.6841V64.752C69.8681 64.6916 69.8923 64.634 69.9347 64.5914C69.9771 64.5487 70.0343 64.5243 70.0942 64.5234C70.1542 64.5243 70.2114 64.5487 70.2538 64.5914C70.2962 64.634 70.3204 64.6916 70.3213 64.752V71.6772C70.3217 71.7075 70.3162 71.7376 70.305 71.7657C70.2938 71.7938 70.2771 71.8194 70.256 71.841C70.2349 71.8626 70.2097 71.8798 70.1819 71.8915C70.1541 71.9032 70.1243 71.9092 70.0942 71.9092Z" fill="#F4F5F8"/>
<path d="M61.1333 67.142C61.1333 67.142 61.3019 60.5977 67.7415 60.5977C74.1812 60.5977 74.3463 67.1351 74.3463 67.1351L61.1333 67.142Z" fill="#F4F5F8"/>
<path d="M82.0005 84.3333C82.0039 83.2037 82.2466 82.0879 82.7124 81.0602C83.1782 80.0326 83.8564 79.1167 84.7017 78.3738C85.547 77.6309 86.54 77.078 87.6145 76.752C88.6889 76.426 89.8201 76.3345 90.9325 76.4834C92.0449 76.6324 93.1129 77.0185 94.0653 77.6159C95.0177 78.2132 95.8326 79.0082 96.4556 79.9478C97.0785 80.8873 97.4952 81.9498 97.6779 83.0643C97.8606 84.1788 97.805 85.3197 97.5149 86.4108C96.6553 89.7915 96.2401 93.2711 96.2799 96.7606V106.92C96.2799 107.095 96.2456 107.269 96.1788 107.431C96.112 107.593 96.0142 107.74 95.8908 107.864C95.7675 107.988 95.6211 108.086 95.46 108.152C95.2989 108.219 95.1263 108.253 94.9521 108.253H84.8351C84.6611 108.253 84.4889 108.218 84.3282 108.151C84.1675 108.084 84.0215 107.986 83.8986 107.862C83.7756 107.739 83.678 107.592 83.6115 107.43C83.5449 107.268 83.5106 107.095 83.5106 106.92V96.1512C83.5399 92.8785 83.1279 89.617 82.286 86.4559C82.0963 85.7645 82.0003 85.0505 82.0005 84.3333Z" fill="#F4F5F8"/>
<path d="M99.6407 48.3516H120.587V25.3564L99.6407 25.3564V48.3516Z" fill="#E0E0E0"/>
<path d="M98.3917 48.3516H119.881V25.3564L98.3917 25.3564V48.3516Z" fill="#F4F5F8"/>
<path d="M118.079 46.5412V27.168H100.188V46.5412H118.079Z" fill="white"/>
<path d="M106.947 40.3112L104.825 36.6096C104.604 36.2233 104.488 35.7853 104.488 35.3395C104.489 34.8938 104.606 34.4561 104.827 34.0702C105.049 33.6843 105.368 33.3639 105.751 33.1411C106.135 32.9183 106.57 32.8009 107.012 32.8008H111.268C111.71 32.8014 112.145 32.9189 112.529 33.1418C112.912 33.3646 113.231 33.6848 113.452 34.0704C113.674 34.456 113.792 34.8935 113.793 35.3391C113.794 35.7848 113.679 36.2229 113.459 36.6096L111.337 40.3112C111.115 40.7005 110.796 41.024 110.41 41.249C110.025 41.474 109.587 41.5925 109.142 41.5925C108.696 41.5925 108.259 41.474 107.873 41.249C107.488 41.024 107.168 40.7005 106.947 40.3112Z" fill="#F4F5F8"/>
<path d="M86.4999 124.847C123.336 124.847 153.198 123.092 153.198 120.927C153.198 118.763 123.336 117.008 86.4999 117.008C49.6635 117.008 19.8018 118.763 19.8018 120.927C19.8018 123.092 49.6635 124.847 86.4999 124.847Z" fill="#F4F5F8"/>
<path d="M109.376 11.1836H30.0771L35.2956 119.889H114.595L109.376 11.1836Z" fill="#3880FF"/>
<path opacity="0.2" d="M109.376 11.1836H30.0771L35.2956 119.889H114.595L109.376 11.1836Z" fill="#222428"/>
<path d="M110.109 11.1836H30.8101L36.032 119.889H115.331L110.109 11.1836Z" fill="#3880FF"/>
<path opacity="0.2" d="M105.922 14.8398H34.4355L39.4304 114.975L101.591 114.892L111.922 105.674L105.922 14.8398Z" fill="#222428"/>
<path d="M106.469 14.8398C107.231 44.8282 109.637 74.7513 113.676 104.473C108.011 108.397 102.376 112.321 96.7684 116.246H43.3039C38.2575 82.662 35.2957 48.7944 34.4355 14.8398H106.469Z" fill="white"/>
<path d="M113.676 104.473C108.012 108.397 102.376 112.321 96.7686 116.246C97.9932 111.052 99.2694 105.858 100.597 100.664L113.676 104.473Z" fill="#F4F5F8"/>
<path d="M53.8198 23.9998C53.9551 27.6656 54.1134 31.3336 54.2945 35.004H43.3657C43.1822 31.3336 43.024 27.6656 42.8909 23.9998H53.8198ZM54.9344 22.8398H41.6973C41.8509 27.2789 42.0424 31.7203 42.2717 36.1639H55.5123C55.283 31.7226 55.0915 27.2812 54.9378 22.8398H54.9344Z" fill="#3880FF"/>
<path d="M98.4782 28.1307H61.0441C61.0097 27.3031 60.9787 26.4721 60.9478 25.6445H98.3784C98.4094 26.4721 98.4438 27.3031 98.4782 28.1307Z" fill="#E0E0E0"/>
<path d="M90.5697 33.3611H61.2747C61.2368 32.5301 61.1955 31.7026 61.1611 30.875H90.4527C90.4917 31.7037 90.5307 32.5324 90.5697 33.3611Z" fill="#E0E0E0"/>
<path d="M54.8933 45.5506C55.1226 49.221 55.3783 52.8913 55.6604 56.5617H44.7281C44.446 52.8913 44.1903 49.221 43.961 45.5506H54.8933ZM55.9734 44.3906H42.7363C43.0069 48.8343 43.3154 53.278 43.6617 57.7217H56.916C56.572 53.2803 56.2624 48.8366 55.9872 44.3906H55.9734Z" fill="#3880FF"/>
<path d="M75.9735 49.6849H62.2135C62.1584 48.8539 62.0999 48.0263 62.0483 47.1953H75.8083C75.8599 48.0263 75.915 48.8539 75.9735 49.6849Z" fill="#E0E0E0"/>
<path d="M89.0009 49.6849H78.8839C78.8288 48.8539 78.7704 48.0263 78.7188 47.1953H88.8358C88.8874 48.0263 88.9424 48.8539 89.0009 49.6849Z" fill="#E0E0E0"/>
<path d="M95.3511 54.9193H62.592C62.5301 54.0883 62.4716 53.2607 62.4097 52.4297H95.1688C95.2307 53.2607 95.2892 54.0883 95.3511 54.9193Z" fill="#E0E0E0"/>
<path d="M56.5341 67.1131C56.8621 70.7835 57.2152 74.4538 57.5936 78.1242H46.6613C46.2829 74.4538 45.9297 70.7835 45.6018 67.1131H56.5341ZM57.5867 65.9531H44.3462C44.7361 70.3991 45.1626 74.8439 45.6259 79.2876H58.8664C58.4078 74.8416 57.9812 70.3968 57.5867 65.9531Z" fill="#3880FF"/>
<path d="M101.67 73.9922H64.2329L64.4806 76.4783H101.918L101.67 73.9922Z" fill="#E0E0E0"/>
<path d="M93.0362 68.7617H63.7412C63.8169 69.5893 63.8926 70.4203 63.9717 71.2479H93.2633C93.1876 70.4203 93.1085 69.5997 93.0362 68.7617Z" fill="#E0E0E0"/>
<path d="M58.7462 88.6756C59.1728 92.346 59.6234 96.0152 60.0981 99.6832H49.1658C48.6911 96.0175 48.2405 92.3483 47.8139 88.6756H58.7462ZM59.7782 87.5156H46.5273C47.0319 91.9616 47.5765 96.4041 48.1613 100.843H61.3881C60.8079 96.4041 60.2633 91.9616 59.7541 87.5156H59.7782Z" fill="#3880FF"/>
<path d="M103.731 92.7982H66.2934C66.1936 91.9672 66.0939 91.1396 65.9976 90.3086H103.432C103.531 91.15 103.628 91.9776 103.731 92.7982Z" fill="#E0E0E0"/>
<path d="M83.9852 98.0369H66.9434C66.8368 97.2094 66.7336 96.3783 66.6304 95.5508H83.6721C83.7753 96.3783 83.8785 97.2094 83.9852 98.0369Z" fill="#E0E0E0"/>
<path d="M94.1609 98.0369H86.8028C86.6961 97.2094 86.5929 96.3783 86.4897 95.5508H93.8479C93.9511 96.3783 94.0681 97.2094 94.1609 98.0369Z" fill="#E0E0E0"/>
<path d="M49.0041 33.4322L48.5191 32.6566C47.4595 30.9599 45.2992 29.4468 44.5527 29.0035L45.11 28.0098C46.5745 28.905 47.8831 30.0361 48.9835 31.3581C50.6484 29.0763 53.1115 26.7182 56.4827 24.1836L57.1947 25.1185C53.5965 27.8297 51.0784 30.3124 49.4891 32.7016L49.0041 33.4322Z" fill="#3880FF"/>
<path d="M50.3115 54.9899L49.8058 54.2143C48.705 52.5176 46.5034 51.001 45.7466 50.5578L46.2729 49.564C47.7653 50.4595 49.1046 51.5913 50.2392 52.9158C51.8423 50.6305 54.2399 48.2725 57.5458 45.7344C57.79 46.046 58.0377 46.3576 58.2819 46.6727C54.7559 49.3874 52.3032 51.8666 50.7793 54.2593C50.6211 54.5017 50.4663 54.7475 50.3115 54.9899Z" fill="#3880FF"/>
<path d="M52.2102 76.6071L51.6839 75.8315C50.5349 74.1348 48.292 72.6182 47.5249 72.1784C47.69 71.8322 47.8689 71.5136 48.0271 71.1847C49.5429 72.0816 50.9101 73.2113 52.0795 74.533C53.624 72.2477 55.9598 69.8931 59.1934 67.3516L59.9571 68.2899C56.5171 71.0046 54.1091 73.4838 52.6539 75.8765L52.2102 76.6071Z" fill="#3880FF"/>
<path d="M86.8886 110.27C84.859 110.27 83.6894 109.515 82.6574 108.85C81.6254 108.185 80.7378 107.611 79.0247 107.611C77.3116 107.611 76.5479 108.213 75.7395 108.85C74.9311 109.487 73.9404 110.27 71.9108 110.27C69.8812 110.27 68.7116 109.515 67.683 108.85C66.6545 108.185 65.767 107.611 64.0504 107.611C62.3338 107.611 61.5736 108.213 60.7652 108.85C59.9568 109.487 58.9661 110.27 56.9399 110.27C54.9138 110.27 53.7407 109.515 52.7087 108.85C51.6767 108.185 50.7926 107.611 49.0761 107.611C49.0314 107.264 48.9832 106.946 48.9385 106.613C50.9681 106.613 52.1342 107.368 53.1662 108.033C54.1982 108.698 55.0823 109.273 56.7954 109.273C58.5086 109.273 59.2722 108.67 60.0806 108.033C60.889 107.396 61.8832 106.613 63.9128 106.613C65.9424 106.613 67.1051 107.368 68.1371 108.033C69.1691 108.698 70.0566 109.273 71.7698 109.273C73.4829 109.273 74.2466 108.67 75.055 108.033C75.8634 107.396 76.8575 106.613 78.8871 106.613C80.9167 106.613 82.0829 107.368 83.1149 108.033C84.1469 108.698 85.031 109.273 86.7475 109.273C86.7922 109.605 86.8438 109.937 86.8886 110.27Z" fill="#F4F5F8"/>
<path d="M89.799 13.8754C88.6363 10.7591 85.9497 8.71268 83.0601 8.71268H77.1708C76.7324 8.70884 76.3047 8.57554 75.9409 8.32933C75.5771 8.08312 75.293 7.73483 75.124 7.32764C74.7077 6.33241 74.0115 5.48134 73.121 4.87908C72.2306 4.27683 71.1847 3.94964 70.1119 3.93775C69.0742 3.92716 68.0601 4.25023 67.2174 4.85993C66.3747 5.46964 65.7474 6.33416 65.4266 7.32764C65.2959 7.73413 65.0395 8.08786 64.6947 8.33708C64.3499 8.58629 63.935 8.71791 63.5105 8.71268H57.6247C54.7317 8.71268 52.2411 10.7695 51.3811 13.8754L51.0371 15.1116H90.2531L89.799 13.8754Z" fill="#222428"/>
<path d="M90.009 16.3288H51.4122C51.0866 16.325 50.7746 16.1971 50.5391 15.9709C50.3035 15.7447 50.1619 15.4371 50.1428 15.1099C50.1343 14.9528 50.1579 14.7955 50.2121 14.6479C50.2663 14.5003 50.35 14.3653 50.458 14.2515C50.5659 14.1376 50.6959 14.0472 50.8399 13.9858C50.9839 13.9244 51.1388 13.8934 51.2952 13.8946H89.892C90.217 13.8983 90.5285 14.0257 90.7639 14.2512C90.9994 14.4766 91.1414 14.7834 91.1614 15.1099C91.1703 15.2674 91.1471 15.425 91.0931 15.5731C91.0391 15.7211 90.9555 15.8564 90.8475 15.9707C90.7395 16.0849 90.6093 16.1756 90.4651 16.2372C90.3209 16.2988 90.1656 16.33 90.009 16.3288Z" fill="#3880FF"/>
<path opacity="0.2" d="M90.009 16.3288H51.4122C51.0866 16.325 50.7746 16.1971 50.5391 15.9709C50.3035 15.7447 50.1619 15.4371 50.1428 15.1099C50.1343 14.9528 50.1579 14.7955 50.2121 14.6479C50.2663 14.5003 50.35 14.3653 50.458 14.2515C50.5659 14.1376 50.6959 14.0472 50.8399 13.9858C50.9839 13.9244 51.1388 13.8934 51.2952 13.8946H89.892C90.217 13.8983 90.5285 14.0257 90.7639 14.2512C90.9994 14.4766 91.1414 14.7834 91.1614 15.1099C91.1703 15.2674 91.1471 15.425 91.0931 15.5731C91.0391 15.7211 90.9555 15.8564 90.8475 15.9707C90.7395 16.0849 90.6093 16.1756 90.4651 16.2372C90.3209 16.2988 90.1656 16.33 90.009 16.3288Z" fill="#222428"/>
<path d="M124.656 118.849H122.135L121.884 112.973H124.405L124.656 118.849Z" fill="#FFC3BD"/>
<path d="M139.789 118.849H137.267L136.001 112.973H138.52L139.789 118.849Z" fill="#FFC3BD"/>
<path d="M137.089 118.551H139.92C139.97 118.551 140.018 118.568 140.057 118.599C140.096 118.631 140.123 118.675 140.133 118.724L140.632 120.982C140.643 121.036 140.642 121.093 140.629 121.147C140.616 121.202 140.59 121.252 140.555 121.295C140.52 121.339 140.475 121.373 140.425 121.397C140.374 121.42 140.319 121.432 140.264 121.432C139.277 121.414 138.795 121.355 137.55 121.355C136.783 121.355 135.204 121.435 134.147 121.435C133.091 121.435 132.95 120.396 133.384 120.289C135.327 119.86 136.057 119.271 136.679 118.707C136.792 118.606 136.938 118.551 137.089 118.551Z" fill="#222428"/>
<path d="M122.152 118.551H124.904C124.954 118.551 125.002 118.568 125.041 118.599C125.08 118.631 125.107 118.675 125.117 118.724L125.616 120.982C125.628 121.034 125.629 121.089 125.617 121.143C125.606 121.196 125.583 121.246 125.55 121.289C125.517 121.332 125.475 121.367 125.427 121.392C125.379 121.416 125.326 121.43 125.272 121.432C124.278 121.414 122.843 121.355 121.595 121.355C120.136 121.355 118.877 121.435 117.164 121.435C116.132 121.435 115.843 120.396 116.277 120.289C118.248 119.853 119.858 119.808 121.56 118.748C121.737 118.63 121.941 118.562 122.152 118.551Z" fill="#222428"/>
<path d="M127.092 26.2891C126.748 28.145 126.548 30.4442 127.838 31.6838C127.838 31.6838 127.099 33.5675 123.673 33.5675C120.542 33.5675 122.111 31.6838 122.111 31.6838C124.175 31.1886 124.058 28.6298 123.7 27.1824L127.092 26.2891Z" fill="#FFC3BD"/>
<path d="M121.127 31.9423C121.196 31.4817 122.001 30.945 122.916 30.7442C123.831 30.5434 127.346 30.0967 128.42 30.5434C129.493 30.99 128.234 32.3128 128.234 32.3128L121.127 31.9423Z" fill="#3880FF"/>
<path opacity="0.4" d="M121.127 31.9423C121.196 31.4817 122.001 30.945 122.916 30.7442C123.831 30.5434 127.346 30.0967 128.42 30.5434C129.493 30.99 128.234 32.3128 128.234 32.3128L121.127 31.9423Z" fill="white"/>
<path opacity="0.2" d="M121.884 112.973L122.015 115.999H124.536L124.405 112.973H121.884Z" fill="#222428"/>
<path opacity="0.2" d="M138.523 112.973H136.001L136.655 115.999H139.177L138.523 112.973Z" fill="#222428"/>
<path d="M133.06 33.9688L130.023 36.0117C130.023 36.0117 134.385 43.8199 134.02 45.0699C133.521 46.7735 132.827 50.4958 131.881 52.3863C132.004 52.7949 132.634 53.7264 132.985 53.8856C135.393 52.0435 137.825 46.2679 137.735 44.6509C137.526 40.984 133.06 33.9688 133.06 33.9688Z" fill="#FFC3BD"/>
<path d="M131.881 52.394L129.473 52.207L130.735 54.8767C130.735 54.8767 132.837 54.9702 133.188 53.3532L131.881 52.394Z" fill="#B55B52"/>
<path d="M143.783 65.4133L143.58 65.7977L142.217 68.3912L93.8579 42.6536L95.4197 39.6758L143.783 65.4133Z" fill="#3880FF"/>
<path d="M146.91 59.4671L145.912 61.3646L145.348 62.438L96.9849 36.7005L98.5466 33.7227L146.91 59.4671Z" fill="#3880FF"/>
<path d="M97.0012 36.6899L95.436 39.6641L143.779 65.4395L145.344 62.4653L97.0012 36.6899Z" fill="#3880FF"/>
<path opacity="0.2" d="M97.0012 36.6899L95.436 39.6641L143.779 65.4395L145.344 62.4653L97.0012 36.6899Z" fill="#222428"/>
<path d="M91.7737 34.1178L90.3667 36.7979L93.8583 42.6532L98.547 33.7266L91.7737 34.1178Z" fill="#3880FF"/>
<path opacity="0.8" d="M91.7737 34.1178L90.3667 36.7979L93.8583 42.6532L98.547 33.7266L91.7737 34.1178Z" fill="white"/>
<path d="M88.8701 34.2869L90.3665 36.7972L91.7735 34.1172L88.8701 34.2869Z" fill="#3880FF"/>
<path d="M127.536 53.4224L128.795 55.7839L130.745 54.8767L129.483 52.207L127.536 53.4224Z" fill="#B55B52"/>
<path d="M132.338 32.2574C134.722 32.6037 137.453 40.9139 137.453 40.9139L132.445 43.7602C132.445 43.7602 130.24 39.8197 129.156 36.8765C128.014 33.7983 129.782 31.8834 132.338 32.2574Z" fill="#222428"/>
<path opacity="0.2" d="M130.952 35.1089C129.868 34.1117 130.532 38.3811 131.048 41.1131C131.313 41.6463 131.564 42.1311 131.777 42.5362C132.985 40.3894 132.445 36.4836 130.952 35.1089Z" fill="#222428"/>
<path d="M118.22 32.3872C118.22 32.3872 115.244 40.0465 118.069 54.3124H131.564C131.657 52.2348 130.356 42.0686 132.352 32.2556C130.861 31.9659 129.354 31.7739 127.838 31.6808C125.931 31.5699 124.018 31.5699 122.111 31.6808C120.797 31.813 119.496 32.0492 118.22 32.3872Z" fill="#222428"/>
<path d="M120.294 35.9476L116.896 34.5938C116.896 34.5938 112.981 42.6374 111.736 43.0425C110.06 43.5965 106.62 45.1201 104.536 45.4178C104.274 45.7641 103.868 46.8029 103.934 47.1838C106.806 48.1291 112.919 46.8756 114.185 45.8853C117.088 43.6277 120.294 35.9476 120.294 35.9476Z" fill="#FFC3BD"/>
<path opacity="0.2" d="M120.676 35.0359C120.115 33.7339 119.042 33.1903 117.924 33.3808C117.491 34.977 116.758 38.4846 116.892 43.7686L117.694 44.1564C117.694 44.1564 121.636 37.2623 120.676 35.0359Z" fill="#222428"/>
<path d="M121.213 34.1236C122.059 36.395 117.773 43.0779 117.773 43.0779L112.73 40.3078C113.488 38.2292 114.464 36.2384 115.644 34.3694C117.415 31.7067 120.281 31.6339 121.213 34.1236Z" fill="#222428"/>
<path d="M104.66 45.4102L101.66 46.0507L103.181 48.8451C104.019 48.4252 104.781 47.8656 105.434 47.1899L104.66 45.4102Z" fill="#FFC3BD"/>
<path d="M100.243 46.6862L101.44 48.3552L103.18 48.8607L101.66 46.0664L100.243 46.6862Z" fill="#FFC3BD"/>
<path d="M121.374 23.6187C121.374 23.823 121.247 23.965 121.113 23.965C120.979 23.965 120.883 23.7849 120.896 23.5806C120.91 23.3763 121.024 23.2344 121.158 23.2344C121.292 23.2344 121.388 23.4144 121.374 23.6187Z" fill="#222428"/>
<path d="M121.554 23.6367C121.276 24.2468 120.916 24.8154 120.484 25.3265C120.617 25.4346 120.772 25.5121 120.937 25.5534C121.103 25.5947 121.276 25.5988 121.444 25.5654L121.554 23.6367Z" fill="#ED847E"/>
<path d="M121.117 22.9111C121.098 22.9072 121.081 22.9002 121.065 22.8903C121.052 22.8819 121.04 22.8708 121.031 22.8578C121.022 22.8448 121.016 22.8301 121.013 22.8146C121.009 22.7991 121.009 22.7831 121.013 22.7675C121.016 22.752 121.022 22.7372 121.031 22.7241C121.13 22.562 121.267 22.4259 121.429 22.3272C121.591 22.2285 121.774 22.1699 121.963 22.1562C121.994 22.1579 122.024 22.1712 122.046 22.1936C122.068 22.216 122.082 22.2458 122.083 22.2774C122.083 22.3096 122.071 22.3404 122.048 22.3631C122.025 22.3859 121.995 22.3986 121.963 22.3986C121.816 22.4124 121.675 22.4606 121.55 22.5394C121.425 22.6182 121.32 22.7253 121.244 22.8522C121.231 22.8742 121.213 22.8917 121.19 22.9022C121.167 22.9128 121.141 22.9159 121.117 22.9111Z" fill="#222428"/>
<path d="M128.213 23.4424C127.918 25.9424 127.869 27.4175 126.538 28.6364C124.533 30.4646 121.523 29.1384 121.068 26.5969C120.663 24.3116 121.216 20.61 123.714 19.7513C124.263 19.5599 124.852 19.5131 125.425 19.6152C125.998 19.7173 126.535 19.965 126.985 20.3348C127.436 20.7045 127.786 21.1841 128.001 21.728C128.215 22.2719 128.289 22.8621 128.213 23.4424Z" fill="#FFC3BD"/>
<path d="M123.208 23.9299C122.338 24.1031 120.948 22.1571 122.084 20.5054C121.509 20.218 119.634 21.3538 118.929 20.2942C118.224 19.2347 120.181 18.6703 119.806 17.7734C121.134 18.047 118.946 19.716 120.209 19.5532C121.471 19.3905 122.926 17.0428 124.337 18.0054C126.831 19.6917 130.229 16.8801 128.843 20.4016C130.542 20.0553 131.705 22.0775 130.085 23.4798C126.855 26.2672 128.843 26.6342 126.796 26.7762C125.771 26.8524 123.387 25.6232 123.208 23.9299Z" fill="#222428"/>
<path d="M124.498 24.5839C124.379 24.8338 124.212 25.0573 124.006 25.241C123.799 25.4248 123.559 25.5651 123.298 25.6538C122.61 25.8928 122.214 25.273 122.376 24.5908C122.52 23.9745 123.064 23.1088 123.776 23.1712C123.932 23.1865 124.082 23.2411 124.212 23.3299C124.342 23.4187 124.448 23.5388 124.52 23.6794C124.592 23.8199 124.627 23.9763 124.623 24.1344C124.62 24.2924 124.577 24.4469 124.498 24.5839Z" fill="#FFC3BD"/>
<path d="M122.851 54.3125C122.851 54.3125 125.713 73.7031 127.281 80.9745C129.001 88.9385 135.479 115.424 135.479 115.424H140.095C140.095 115.424 135.826 89.5722 134.842 81.6948C133.779 73.1491 131.55 54.3229 131.55 54.3229L122.851 54.3125Z" fill="#3880FF"/>
<path opacity="0.2" d="M122.851 54.3125C122.851 54.3125 125.713 73.7031 127.281 80.9745C129.001 88.9385 135.479 115.424 135.479 115.424H140.095C140.095 115.424 135.826 89.5722 134.842 81.6948C133.779 73.1491 131.55 54.3229 131.55 54.3229L122.851 54.3125Z" fill="white"/>
<path opacity="0.2" d="M126.249 61.094C126.036 60.7893 125.843 60.6854 125.664 60.7478H125.626C125.586 60.7657 125.547 60.789 125.513 60.817C125.476 60.847 125.443 60.8806 125.413 60.9174L125.358 60.9867L125.286 61.101C125.226 61.2017 125.174 61.3071 125.131 61.4161C125.103 61.4818 125.076 61.5511 125.052 61.6204C125.028 61.6896 124.99 61.7969 124.962 61.8939C124.935 61.9909 124.883 62.1571 124.845 62.299C124.845 62.3371 124.828 62.3717 124.818 62.4098C124.808 62.4479 124.78 62.5691 124.763 62.6487C124.746 62.7284 124.732 62.7872 124.718 62.8565C124.687 62.9915 124.66 63.1335 124.632 63.2789C124.605 63.4244 124.574 63.594 124.546 63.7568C124.546 63.8122 124.529 63.8676 124.519 63.9264C124.484 64.1342 124.453 64.3454 124.422 64.5636C125.186 69.3904 126.094 74.9237 126.83 78.7845C126.865 78.6598 126.903 78.5282 126.934 78.3863C127.084 77.7422 127.199 77.0902 127.278 76.4334C127.928 71.4576 127.628 63.0781 126.249 61.094Z" fill="#222428"/>
<path d="M118.069 54.3125C118.069 54.3125 117.725 73.2806 117.997 81.0196C118.282 89.0666 121.075 115.414 121.075 115.414H125.344C125.344 115.414 125.499 89.5341 125.688 81.6324C125.895 73.0175 126.927 54.3125 126.927 54.3125H118.069Z" fill="#3880FF"/>
<path opacity="0.2" d="M118.069 54.3125C118.069 54.3125 117.725 73.2806 117.997 81.0196C118.282 89.0666 121.075 115.414 121.075 115.414H125.344C125.344 115.414 125.499 89.5341 125.688 81.6324C125.895 73.0175 126.927 54.3125 126.927 54.3125H118.069Z" fill="white"/>
<path d="M125.627 114.099C125.644 114.099 125.627 115.501 125.627 115.501H120.704L120.498 113.926L125.627 114.099Z" fill="#222428"/>
<path d="M140.095 114.202C140.116 114.202 140.326 115.501 140.326 115.501H135.252L134.805 114.012L140.095 114.202Z" fill="#222428"/>
</svg>
